<svg width="14" height="14" viewBox="0 0 14 14" fill="none" xmlns="http://www.w3.org/2000/svg">
<path d="M7 0C10.8669 0 14 3.13306 14 7C14 10.8669 10.8669 14 7 14C3.13306 14 0 10.8669 0 7C0 3.13306 3.13306 0 7 0ZM6.18427 4.05323L8.31532 6.09677H3.16129C2.78589 6.09677 2.48387 6.39879 2.48387 6.77419V7.22581C2.48387 7.60121 2.78589 7.90323 3.16129 7.90323H8.31532L6.18427 9.94677C5.91048 10.2093 5.90484 10.6468 6.17298 10.9149L6.48347 11.2226C6.74879 11.4879 7.17782 11.4879 7.44032 11.2226L11.1859 7.47984C11.4512 7.21452 11.4512 6.78548 11.1859 6.52298L7.44032 2.7746C7.175 2.50927 6.74597 2.50927 6.48347 2.7746L6.17298 3.08226C5.90484 3.35323 5.91048 3.79073 6.18427 4.05323Z" fill="#01AD1C"/>
</svg>
