<svg width="20" height="21" viewBox="0 0 20 21" fill="none" xmlns="http://www.w3.org/2000/svg">
<path d="M19.4643 6.5625C19.7589 6.5625 20 6.34102 20 6.07031V4.42969C20 4.15898 19.7589 3.9375 19.4643 3.9375H18.5714V1.96875C18.5714 0.881836 17.6116 0 16.4286 0H2.14286C0.959821 0 0 0.881836 0 1.96875V19.0312C0 20.1182 0.959821 21 2.14286 21H16.4286C17.6116 21 18.5714 20.1182 18.5714 19.0312V17.0625H19.4643C19.7589 17.0625 20 16.841 20 16.5703V14.9297C20 14.659 19.7589 14.4375 19.4643 14.4375H18.5714V11.8125H19.4643C19.7589 11.8125 20 11.591 20 11.3203V9.67969C20 9.40898 19.7589 9.1875 19.4643 9.1875H18.5714V6.5625H19.4643ZM9.28571 5.25C10.8616 5.25 12.1429 6.42715 12.1429 7.875C12.1429 9.32285 10.8616 10.5 9.28571 10.5C7.70982 10.5 6.42857 9.32285 6.42857 7.875C6.42857 6.42715 7.70982 5.25 9.28571 5.25ZM14.2857 14.9625C14.2857 15.3973 13.8393 15.75 13.2857 15.75H5.28571C4.73214 15.75 4.28571 15.3973 4.28571 14.9625V14.175C4.28571 12.8707 5.62946 11.8125 7.28571 11.8125H7.50893C8.05804 12.0217 8.65625 12.1406 9.28571 12.1406C9.91518 12.1406 10.5179 12.0217 11.0625 11.8125H11.2857C12.942 11.8125 14.2857 12.8707 14.2857 14.175V14.9625Z" fill="#2C2C2C"/>
</svg>
