<?xml version="1.0" encoding="utf-8"?>
<!-- Generator: Adobe Illustrator 24.0.2, SVG Export Plug-In . SVG Version: 6.00 Build 0)  -->
<svg version="1.1" id="Layer_1" xmlns="http://www.w3.org/2000/svg" xmlns:xlink="http://www.w3.org/1999/xlink" x="0px" y="0px"
	 viewBox="0 0 94 94" style="enable-background:new 0 0 94 94;" xml:space="preserve">
<style type="text/css">
	.st0{fill:#0086CC;}
	.st1{fill:#FFFFFF;}
</style>
<path class="st0" d="M94,47.3c0,26-21,47-47,47s-47-21-47-47s21-47,47-47S94,21.3,94,47.3z"/>
<path class="st1" d="M67.3,56.1l-9.4-4c-0.4-0.2-0.8-0.2-1.3-0.1c-0.4,0.1-0.8,0.3-1.1,0.7l-4.2,5.1c-6.5-3.1-11.8-8.3-14.9-14.9
	l5.1-4.2c0.3-0.3,0.6-0.7,0.7-1.1c0.1-0.4,0.1-0.9-0.1-1.3l-4-9.4c-0.2-0.4-0.5-0.8-0.9-1c-0.4-0.2-0.9-0.3-1.4-0.2l-8.7,2
	c-0.4,0.1-0.8,0.4-1.1,0.7c-0.3,0.4-0.4,0.8-0.4,1.3c0,21.5,17.5,39,39,39c0.5,0,0.9-0.2,1.3-0.4c0.4-0.3,0.6-0.7,0.7-1.1l2-8.7
	c0.1-0.5,0-0.9-0.2-1.4C68.1,56.7,67.7,56.3,67.3,56.1z"/>
</svg>
