<?xml version="1.0" encoding="utf-8"?>
<!-- Generator: Adobe Illustrator 24.0.2, SVG Export Plug-In . SVG Version: 6.00 Build 0)  -->
<svg version="1.1" id="Layer_1" xmlns="http://www.w3.org/2000/svg" xmlns:xlink="http://www.w3.org/1999/xlink" x="0px" y="0px"
	 viewBox="0 0 44 39" style="enable-background:new 0 0 44 39;" xml:space="preserve">
<style type="text/css">
	.st0{fill:#FFFFFF;}
</style>
<path class="st0" d="M43.3,6.8c-0.3,1-0.6,2.1-0.9,3.1c-1.4,4.9-2.8,9.9-4.1,14.8c-0.2,0.9-0.6,1.2-1.5,1.2c-7.1,0-14.2,0-21.3,0
	c-0.4,0-0.7,0.1-0.9,0.5c-0.5,1.1,0,2.1,1.3,2.1c6.9,0,13.9,0,20.8,0c0.2,0,0.4,0,0.5,0c0.6,0.1,1.1,0.7,1,1.4
	c-0.1,0.7-0.6,1.2-1.3,1.2c-1.3,0-2.7,0-4,0c-0.1,0-0.2,0-0.4,0c2.2,0.7,3.4,2.4,3.2,4.3c-0.3,2-1.9,3.4-3.8,3.4
	c-1.9,0-3.5-1.4-3.8-3.4c-0.3-1.9,0.9-3.7,3.2-4.4c-3.9,0-7.7,0-11.5,0c1,0.3,1.9,0.8,2.5,1.7c0.6,0.9,0.8,1.9,0.6,3
	c-0.4,1.8-2,3.1-3.8,3c-1.8-0.1-3.4-1.5-3.6-3.4c-0.3-1.9,0.9-3.6,3.2-4.4c-1,0-1.9,0-2.7,0c-3.1,0-4.9-3-3.5-5.7
	c0.3-0.6,0.3-1.1,0.2-1.8C10.5,16.7,8.6,9.8,6.7,3c0-0.1-0.1-0.2-0.1-0.4c-0.2,0-0.4,0-0.6,0c-1.4,0-2.8,0-4.2,0
	c-0.8,0-1.4-0.2-1.7-1C0,1.4,0,1.2,0,1c0.3-0.6,0.7-1,1.4-1c2,0,4,0,6,0c0.7,0,1.1,0.3,1.3,1c0.2,0.6,0.3,1.1,0.5,1.7
	c0.2,0.8,0.5,1.6,0.7,2.5c0.2,0,0.4,0,0.6,0c10.4,0,20.8,0,31.2,0c0.8,0,1.3,0.2,1.7,1C43.3,6.4,43.3,6.6,43.3,6.8z M10.6,7.8
	c1.5,5.2,2.9,10.3,4.3,15.5c7,0,14,0,21,0c1.4-5.2,2.9-10.3,4.3-15.5C30.4,7.8,20.6,7.8,10.6,7.8z M20.4,34.9c0-0.7-0.6-1.3-1.2-1.3
	c-0.7,0-1.3,0.6-1.3,1.3c0,0.7,0.6,1.3,1.3,1.3C19.8,36.2,20.4,35.6,20.4,34.9z M31.9,33.6c-0.7,0-1.3,0.6-1.2,1.3
	c0,0.7,0.6,1.3,1.3,1.3c0.7,0,1.3-0.6,1.3-1.3C33.1,34.2,32.5,33.6,31.9,33.6z"/>
</svg>
