<svg width="44" height="39" viewBox="0 0 44 39" fill="none" xmlns="http://www.w3.org/2000/svg">
<path d="M43.2824 6.81143C42.9744 7.85143 42.6552 8.88571 42.364 9.93143C40.9808 14.8571 39.6032 19.7829 38.22 24.7086C37.9736 25.5829 37.5928 25.88 36.6968 25.88C29.596 25.88 22.4952 25.8857 15.3944 25.8686C14.952 25.8686 14.728 25.9943 14.5432 26.4057C14.028 27.5486 14.5768 28.4686 15.8256 28.4686C22.7696 28.4686 29.7192 28.4686 36.6632 28.4686C36.848 28.4686 37.0328 28.4629 37.2064 28.5029C37.8336 28.6457 38.2592 29.2343 38.2088 29.8629C38.1528 30.5314 37.6208 31.0457 36.932 31.0514C35.5936 31.0629 34.2552 31.0571 32.9168 31.0571C32.7936 31.0571 32.676 31.0686 32.4968 31.0743C34.692 31.7429 35.9184 33.4457 35.6552 35.3829C35.3808 37.3829 33.8016 38.8171 31.8752 38.8171C29.9712 38.8171 28.4032 37.4114 28.1008 35.4286C27.804 33.48 29.0192 31.7771 31.2536 31.0743C27.3952 31.0743 23.5984 31.0743 19.8016 31.0743C20.8208 31.3371 21.6664 31.8686 22.2544 32.7714C22.8536 33.6857 23.044 34.6914 22.82 35.7771C22.4504 37.5771 20.8152 38.8743 18.9728 38.8229C17.1304 38.7714 15.6184 37.36 15.3272 35.4286C15.036 33.4857 16.212 31.84 18.5192 31.0629C17.5392 31.0629 16.66 31.0629 15.7752 31.0629C12.7064 31.0571 10.892 28.1029 12.2808 25.3143C12.5832 24.7086 12.6224 24.1886 12.4376 23.5371C10.4944 16.6857 8.5848 9.82286 6.664 2.96571C6.636 2.85714 6.5968 2.74857 6.5464 2.59429C6.3504 2.59429 6.1376 2.59429 5.9304 2.59429C4.5192 2.59429 3.1136 2.56571 1.7024 2.60571C0.9128 2.62857 0.336 2.38857 0 1.64571C0 1.41714 0 1.18286 0 0.954286C0.2856 0.382857 0.6776 0 1.3664 0C3.3824 0.0114286 5.3984 2.18861e-08 7.4088 0.00571431C8.1144 0.00571431 8.5456 0.331428 8.7528 1.02286C8.9208 1.58286 9.0664 2.15429 9.2288 2.72C9.4584 3.54286 9.6936 4.36 9.9288 5.18286C10.1416 5.18286 10.3152 5.18286 10.4832 5.18286C20.8656 5.18286 31.248 5.18857 41.636 5.17143C42.4144 5.17143 42.9688 5.40571 43.2992 6.13143C43.2824 6.35429 43.2824 6.58286 43.2824 6.81143ZM10.6456 7.78286C12.096 12.9657 13.5408 18.1257 14.98 23.2686C22.0248 23.2686 29.008 23.2686 35.9912 23.2686C37.436 18.1029 38.8808 12.96 40.3256 7.78286C30.4248 7.78286 20.552 7.78286 10.6456 7.78286ZM20.3672 34.9429C20.3728 34.2457 19.8016 33.6514 19.1184 33.64C18.4352 33.6286 17.8472 34.2057 17.836 34.9029C17.8192 35.6171 18.4072 36.2286 19.1072 36.2229C19.7904 36.2286 20.3672 35.6457 20.3672 34.9429ZM31.8528 33.6457C31.1696 33.6571 30.5984 34.2514 30.604 34.9486C30.6096 35.6457 31.1864 36.2343 31.8696 36.2343C32.5696 36.2343 33.152 35.6229 33.1352 34.9086C33.1184 34.2114 32.536 33.6343 31.8528 33.6457Z" fill="#006FAB"/>
</svg>
