<svg width="14" height="19" viewBox="0 0 14 19" fill="none" xmlns="http://www.w3.org/2000/svg">
<path d="M3.92042 0L3.36048 0C2.89661 0 2.52057 0.378818 2.52057 0.846128L2.52057 13.538H0.840748C0.0929828 13.538 -0.280603 14.4511 0.246826 14.9825L3.04653 17.8029C3.37455 18.1333 3.90635 18.1333 4.23434 17.8029L7.03404 14.9825C7.55941 14.4531 7.19103 13.538 6.44015 13.538L4.76033 13.538L4.76033 0.846128C4.76033 0.378818 4.3843 0 3.92042 0ZM9.23986 17.2046L9.23986 4.51268L7.56004 4.51268C6.81412 4.51268 6.43736 3.60091 6.96611 3.06823L9.76582 0.24781C10.0938 -0.0826032 10.6256 -0.0826032 10.9536 0.24781L13.7533 3.06823C14.2792 3.59805 13.9097 4.51268 13.1594 4.51268H11.4796L11.4796 17.2046C11.4796 17.6719 11.1036 18.0507 10.6397 18.0507H10.0798C9.61589 18.0507 9.23986 17.6719 9.23986 17.2046Z" fill="#2C2C2C"/>
</svg>
