<svg width="25" height="22" viewBox="0 0 25 22" fill="none" xmlns="http://www.w3.org/2000/svg">
<path d="M8.75 13.2726H10V3.98178H8.75C8.05977 3.98178 7.5 4.57614 7.5 5.30904V11.9453C7.5 12.6782 8.05977 13.2726 8.75 13.2726ZM22.5 11.9453V5.30904C22.5 4.57614 21.9402 3.98178 21.25 3.98178H20V13.2726H21.25C21.9402 13.2726 22.5 12.6782 22.5 11.9453ZM24.375 15.9271H5V0.663629C5 0.296974 4.72031 0 4.375 0H0.625C0.279687 0 0 0.296974 0 0.663629V1.99089C0 2.35754 0.279687 2.65452 0.625 2.65452H2.5V17.918C2.5 18.2847 2.77969 18.5816 3.125 18.5816H6.36484C6.29492 18.7903 6.25 19.0113 6.25 19.2453C6.25 20.3448 7.08945 21.2361 8.125 21.2361C9.16055 21.2361 10 20.3448 10 19.2453C10 19.0113 9.95508 18.7903 9.88516 18.5816H17.6148C17.5449 18.7903 17.5 19.0113 17.5 19.2453C17.5 20.3448 18.3395 21.2361 19.375 21.2361C20.4105 21.2361 21.25 20.3448 21.25 19.2453C21.25 19.0113 21.2051 18.7903 21.1352 18.5816H24.375C24.7203 18.5816 25 18.2847 25 17.918V16.5907C25 16.2241 24.7203 15.9271 24.375 15.9271ZM18.75 3.98178V1.99089C18.75 0.891337 17.9105 0 16.875 0H13.125C12.0895 0 11.25 0.891337 11.25 1.99089V13.2726H18.75V3.98178ZM16.875 3.98178H13.125V1.99089H16.875V3.98178Z" fill="#2C2C2C"/>
</svg>
