<?xml version="1.0" encoding="utf-8"?>
<!-- Generator: Adobe Illustrator 24.0.2, SVG Export Plug-In . SVG Version: 6.00 Build 0)  -->
<svg version="1.1" id="Layer_1" xmlns="http://www.w3.org/2000/svg" xmlns:xlink="http://www.w3.org/1999/xlink" x="0px" y="0px"
	 viewBox="0 0 85 85" style="enable-background:new 0 0 85 85;" xml:space="preserve">
<path d="M18.1,12.7c0,2.4,0,4.7,0,7.1c-1.2,0-2.3,0-3.5,0c-2.1,0.1-3.5,1.4-3.6,3.3c-0.1,2,1.2,3.5,3.3,3.7c0.6,0.1,1.1,0,1.7,0
	c19.3,0,38.6,0.1,57.9-0.1c5.3,0,8.3,3.6,8.3,8.2c-0.2,13.6-0.1,27.2-0.1,40.8c0,5.1-2.8,7.9-8,7.9c-19.6,0-39.2,0-58.8,0
	c-7.1,0-11.5-4.4-11.5-11.5c0-15.9,0.2-31.9-0.1-47.8c-0.1-6.8,4.9-12.4,11.9-11.8C16.4,12.8,17.2,12.7,18.1,12.7z M68,62.6
	c3.9,0,7.1-3.1,7.1-7.1c0-3.9-3.1-7.1-7.1-7.1c-3.9,0-7.2,3.3-7.2,7.2C60.9,59.5,64.1,62.6,68,62.6z"/>
<path d="M46.4,7.6c11.2-6.2,22,3,21.5,12.2c-2.2,0-4.5,0-6.9,0c-0.1-0.4-0.1-0.8-0.2-1.1c-0.8-4.6-5.8-7.2-10-5.2
	c-0.8,0.4-1.2,0.7-1,1.7c0.3,1.2,0.3,2.5,0.3,3.7c0,0.4-0.5,1-0.8,1c-2.1,0.1-4.1,0-6.1,0C42.5,12.7,39.3,9,34,9.2
	c-5.4,0.2-8.5,4-8.7,10.6c-2.3,0-4.6,0-6.9,0c-1.2-5.3,1.9-12,7.2-15.2C32.3,0.4,38.6,1.3,46.4,7.6z"/>
</svg>
