<?xml version="1.0" encoding="utf-8"?>
<!-- Generator: Adobe Illustrator 24.0.2, SVG Export Plug-In . SVG Version: 6.00 Build 0)  -->
<svg version="1.1" id="Layer_1" xmlns="http://www.w3.org/2000/svg" xmlns:xlink="http://www.w3.org/1999/xlink" x="0px" y="0px"
	 viewBox="0 0 197 64" style="enable-background:new 0 0 197 64;" xml:space="preserve">
<style type="text/css">
	.st0{fill:#FFFFFF;}
	.st1{fill-rule:evenodd;clip-rule:evenodd;fill:#DF0E5C;}
</style>
<polygon class="st0" points="57.3,50 58.8,47.4 59.2,45.9 59.4,45.1 59.5,44.2 59.5,43.8 59.5,19.5 56.3,15.4 47.6,9.4 39.3,5 
	30.6,3.7 20.8,6.4 11.2,12.2 6.5,26.8 3.3,37.6 8.1,44.5 10.2,52.3 14.8,56 19.1,57.5 27.8,58.9 41.2,56.4 48,54.7 53,52.3 "/>
<path class="st1" d="M33,63.3c-0.8,0-1.7,0-2.5,0C15.2,61.9,5.4,53.4,1.6,40.7c-4.7-16.1,4-29.5,13.6-35.3C20.7,2,28.3-0.1,36.2,1
	c7.2,1,12.9,4.3,17.3,8.5c4.2,4,7.8,9.9,9,16.7c1.4,7.7-0.2,15.8-3.7,21.3c-4.9-3.5-11.8-6.3-20.4-5c-0.9-2.5-0.8-4.4-1.7-6.6
	c-1-2.3-3.3-3.7-3.7-6.3c-0.2-1.9,0.4-3.8,0.2-6.2c1.4-1.4,3.2-1.8,4.9-3.3c0.7-0.6,4.1-5,2.5-5.8c-1-0.5-1.6,1.5-2.1,2.2
	c-1.7,2.7-4.5,3.9-7.8,4.2c0.3-1.4,0.7-2,0.4-3.1c-0.7-2.7-5.1-2.5-5.4,0.4c-0.2,1.7,1.1,2.3,1.1,3.7c-3.2-0.4-5.9-1-8.5-2.3
	c-0.7-0.3-2.1-1.5-2.6-0.6c-0.8,1.4,3.7,3.3,4.3,3.6c1.9,0.8,4.6,1.2,5.7,2.4c0.8,0.9,1.1,4.5,1,6.4c-0.1,5.1-2.1,6.8-4.2,9.8
	c-0.5,0.7-3,3.3-1.5,4.1c1.4,0.7,3-2.1,3.9-3c1.4-1.5,2.5-2.3,3.3-3.8c0.8-1.5,1-3.3,2.1-4.7c0.8,0.3,1.4,1.1,1.9,1.8
	c1.7,2.1,2.9,4.7,3.7,7.4c-5.8,1.5-9.9,4.2-13.5,8.2c-0.6,0.7-3.5,3.3-2.3,4.3c0.9,0.7,2.2-1,2.6-1.4c5.3-4.7,13.2-9,23.2-8.2
	c4.7,0.3,7.5,2.1,11.2,3.9C52.1,57.1,44.7,62.4,33,63.3z M33.2,6.5c-0.1,0-0.1,0.1-0.1,0.2c-0.2,0.3,0.6,0.7,0.6,1.3
	c-0.1,0.5-0.8,0.8-0.6,1.4c0.8,0.1,1-0.5,1.5-0.7c0.4,0.3,0.6,0.7,1.4,0.7c0.1-0.8-0.5-0.8-0.6-1.5c0.1-0.5,0.7-0.6,0.6-1.4
	C35.3,6.2,35,7,34.4,7.1C34,7,33.6,6.3,33.2,6.5z M53.1,21.6c-0.9-0.1-1.7-1.1-2.6-0.4c-0.4,1.2,1,1.6,1.5,2.3c-0.3,0.8-2,1.6-1,2.6
	c1,0.2,1.5-0.8,2.5-0.9c0.5,0.6,0.8,2,1.6,1.9c1.2-0.1,0.4-1.7,0.3-2.9c3.2-0.1,2.7-2.3-0.2-2.2c0.2-0.6,0.1-1.8,0-2.4
	C53.6,19,53.7,20.9,53.1,21.6z M42.5,32.9c-0.5,0.1-1.3-0.2-1.4,0.3c0.1,0.6,0.9,0.4,1.1,0.9c0.1,0.5-0.2,1.3,0.3,1.4
	c0.6-0.1,0.5-0.9,0.9-1.3c0.4,0,1.1,0.1,1.4-0.1c0-0.8-1-0.6-1.3-1c0-0.4,0-0.9,0-1.4C42.7,31.6,43.1,32.7,42.5,32.9z M14.7,36.3
	c-0.3,0.3-1.1,0.2-1.1,0.9c0.3,0.5,0.9,0,1.5,0.1c0.3,0.4,0.3,1.1,0.9,1.3c0.4-0.2,0.2-1,0.2-1.6c0.3-0.3,1-0.2,1.1-0.8
	c-0.2-0.6-0.8-0.1-1.5-0.2c-0.3-0.4-0.4-1-0.9-1.3C14.5,34.9,14.7,35.8,14.7,36.3z M55.6,37.9c-0.4,0.3-1.1,0.3-1.3,0.9
	c0.2,0.4,1.1,0.1,1.6,0.2c0.2,0.4,0.3,1,0.8,1.1c0.6-0.2,0.1-0.8,0.2-1.5c0.4-0.3,1-0.4,1.3-0.9c-0.2-0.4-1-0.2-1.6-0.2
	c-0.3-0.3-0.2-1-0.8-1.1c-0.1,0-0.1,0-0.2,0C55.3,36.9,55.5,37.4,55.6,37.9z M13.6,48.9c-0.5,0-0.3-1.1-1.3-1
	c-0.5,0.5,0.1,1.2,0.2,1.7c-0.6,0.2-1.2,0.3-1.4,0.9c0.1,0.5,1.4,0.2,1.6,0.3c0.1,0.4,0.1,1,0.2,1.4c0.2,0,0.2,0.1,0.4,0.1
	c0.5-0.2,0.3-1.1,0.7-1.5c0.3,0.2,0.9,0.2,1.3,0.3c0.1-0.2,0.3-0.3,0.3-0.6c-0.3-0.4-0.8-0.6-1.1-0.9c0.1-0.5,0.6-0.7,0.6-1.4
	c-0.1,0-0.2-0.1-0.2-0.2C14.1,48,14.1,49,13.6,48.9z"/>
<path class="st0" d="M73.6,27.5V10c0-0.9,0.7-1.6,1.6-1.6c0.9,0,1.7,0.7,1.7,1.6v15.8h8c0.9,0,1.6,0.7,1.6,1.7
	c0,0.9-0.8,1.6-1.6,1.6h-9.6c0,0,0,0,0,0c0,0,0,0,0,0C74.3,29.1,73.6,28.4,73.6,27.5z"/>
<path class="st0" d="M88.6,21.7c0-4,3.2-7.4,7.2-7.4c3.8,0,6.9,2.9,7.1,6.9c0,0,0,0.1,0,0.1c0,0,0,0.2,0,0.3
	c-0.1,0.7-0.7,1.2-1.5,1.2H92c0.1,0.7,0.5,1.5,1,2c0.6,0.7,1.8,1.2,2.9,1.3c1.1,0.1,2.3-0.2,3.1-0.7c0.6-0.6,1.8-0.6,2.2-0.1
	c0.4,0.4,0.7,1.3,0,1.9c-1.5,1.3-3.2,2-5.3,2C91.8,29.1,88.7,25.7,88.6,21.7z M91.8,20.2h8.4c-0.3-1.2-1.8-2.9-4.4-3.1
	C93.3,17.2,92.1,19,91.8,20.2z"/>
<path class="st0" d="M120.3,21.7v5.8c0,0.9-0.7,1.6-1.6,1.6c-0.8,0-1.4-0.6-1.5-1.3c-1.1,0.8-2.5,1.3-3.9,1.3c-2,0-3.8-0.8-5-2.2
	c-1.3-1.4-2-3.2-2-5.2c0-2.1,0.7-3.9,2-5.2c1.3-1.4,3-2.2,5-2.2c1.5,0,2.8,0.5,3.9,1.3c0.2-0.7,0.8-1.3,1.5-1.3
	c0.9,0,1.6,0.7,1.6,1.6V21.7z M117.1,21.7c0-1.2-0.4-2.3-1.2-3c-0.7-0.8-1.7-1.2-2.8-1.2c-1.1,0-2.1,0.4-2.8,1.2
	c-0.7,0.7-1.1,1.8-1.1,3c0,1.2,0.4,2.3,1.1,3c0.7,0.7,1.7,1.2,2.8,1.2c1,0,2.1-0.4,2.8-1.2C116.7,24,117.1,22.9,117.1,21.7z"/>
<path class="st0" d="M135.2,15.8c0,0.8-0.7,1.6-1.6,1.6c-0.7,0-1.3,0.2-1.8,0.6c-0.6,0.3-1,0.9-1.4,1.4c-0.7,0.9-1.1,2.1-1.2,2.5
	v5.6c0,0.9-0.7,1.6-1.6,1.6c-0.9,0-1.6-0.7-1.6-1.6V15.8c0-0.9,0.7-1.5,1.6-1.5c0.9,0,1.6,0.7,1.6,1.5V16c0.2-0.2,0.4-0.4,0.6-0.6
	c1-0.6,2.3-1.2,3.7-1.2C134.5,14.3,135.2,15,135.2,15.8z"/>
<path class="st0" d="M151.4,20.4v7.1c0,0.9-0.7,1.6-1.5,1.6c-0.8,0-1.6-0.7-1.6-1.6v-7.1c0-1.7-1.4-3-3.1-3c-1.7,0-3,1.3-3,3v7.1
	c0,0.1,0,0.2-0.1,0.3c-0.1,0.7-0.8,1.3-1.6,1.3c-0.9,0-1.6-0.7-1.6-1.6v-7.1v-4.6c0-0.9,0.7-1.6,1.6-1.6c0.6,0,1.2,0.3,1.5,0.9
	c0.9-0.6,2-0.9,3.1-0.9C148.7,14.3,151.4,17.1,151.4,20.4z"/>
<path class="st0" d="M160.5,10.6c0,0.9-0.7,1.6-1.6,1.6c-0.9,0-1.6-0.7-1.6-1.6V9.9c0-0.9,0.7-1.6,1.6-1.6c0.9,0,1.6,0.7,1.6,1.6
	V10.6z M160.5,15.9v11.6c0,0.9-0.7,1.6-1.6,1.6c-0.9,0-1.6-0.7-1.6-1.6V15.9c0-0.9,0.7-1.6,1.6-1.6C159.8,14.3,160.5,15,160.5,15.9z
	"/>
<path class="st0" d="M177.9,20.4v7.1c0,0.9-0.7,1.6-1.5,1.6c-0.8,0-1.6-0.7-1.6-1.6v-7.1c0-1.7-1.4-3-3.1-3c-1.7,0-3,1.3-3,3v7.1
	c0,0.1,0,0.2-0.1,0.3c-0.1,0.7-0.8,1.3-1.6,1.3c-0.9,0-1.6-0.7-1.6-1.6v-7.1v-4.6c0-0.9,0.7-1.6,1.6-1.6c0.6,0,1.2,0.3,1.5,0.9
	c0.9-0.6,2-0.9,3.1-0.9C175.2,14.3,177.9,17.1,177.9,20.4z"/>
<path class="st0" d="M197,21.8v5.5c0,3.9-3.2,7.1-7.1,7.1c-1.1,0-2.2-0.3-3.1-0.7c-0.8-0.3-1.1-1.3-0.7-2.1c0.4-0.8,1.3-1.1,2.1-0.7
	c0.5,0.3,1.1,0.4,1.7,0.4c1.9,0,3.5-1.4,3.9-3.2c-1.1,0.7-2.4,1.2-3.9,1.2c-2,0-3.8-0.9-5-2.3c-1.3-1.3-2.1-3.1-2.1-5.2
	c0-2.1,0.8-3.9,2.1-5.3c1.3-1.3,3.1-2.2,5-2.2c1.5,0,2.9,0.5,4,1.2c0.1-0.7,0.8-1.2,1.6-1.2c0.9,0,1.6,0.7,1.6,1.6L197,21.8
	L197,21.8L197,21.8z M193.8,21.7c0-1.2-0.5-2.3-1.1-3c-0.8-0.8-1.7-1.3-2.8-1.3c-1,0-2,0.4-2.7,1.3c-0.7,0.7-1.2,1.8-1.2,3
	c0,1.2,0.5,2.4,1.2,3c0.7,0.8,1.7,1.2,2.7,1.2c1.1,0,2.1-0.4,2.8-1.2C193.4,24.1,193.8,23,193.8,21.7z"/>
<path class="st0" d="M73.3,51.6c0.6-0.7,1.7-0.8,2.5-0.2c1.5,1.2,4.1,2.6,6.5,2.6c1.7,0,3.2-0.5,4.2-1.2c1-0.7,1.5-1.6,1.5-2.4
	c0-0.4-0.1-0.7-0.3-1.1c-0.2-0.3-0.5-0.7-1-1c-1-0.6-2.6-1.2-4.6-1.6h-0.1c-1.6-0.3-3.1-0.7-4.4-1.3c-1.3-0.6-2.4-1.5-3.1-2.6
	c-0.5-0.8-0.8-1.8-0.8-2.8c0-2,1.1-3.8,2.7-4.9c1.6-1.1,3.6-1.8,5.8-1.8c3.2,0,5.7,1.6,7.4,2.7c0.8,0.5,1,1.6,0.5,2.4
	c-0.5,0.8-1.6,1-2.4,0.5c-1.7-1.1-3.4-2.2-5.5-2.2c-1.5,0-2.9,0.5-3.8,1.1c-0.9,0.7-1.3,1.4-1.3,2.1c0,0.4,0.1,0.7,0.2,0.9
	c0.2,0.3,0.5,0.6,0.9,0.9c0.9,0.6,2.4,1.1,4.2,1.5h0.1c1.7,0.3,3.3,0.8,4.7,1.4c1.4,0.7,2.6,1.6,3.4,2.8c0.5,0.8,0.8,1.8,0.8,2.9
	c0,2.2-1.2,4-2.9,5.3c-1.7,1.2-3.9,1.9-6.2,1.9c-3.6,0-6.7-1.9-8.7-3.4C72.8,53.4,72.7,52.3,73.3,51.6z"/>
<path class="st0" d="M104.5,48.3h-4.2v7.3c0,1-0.8,1.9-1.9,1.9c-1,0-1.9-0.8-1.9-1.9v-20c0-1,0.8-1.9,1.9-1.9h0h6
	c4,0,7.3,3.2,7.3,7.3C111.8,45,108.5,48.3,104.5,48.3z M100.3,44.5h4.2c2,0,3.5-1.6,3.5-3.4c0-2-1.6-3.5-3.5-3.5h-4.2V44.5z"/>
<path class="st0" d="M126,51.9h-8.2l-1.7,4.4c-0.3,0.7-1,1.2-1.8,1.2c-0.2,0-0.4,0-0.6-0.1c-1-0.4-1.5-1.5-1.1-2.4l7.5-19.9
	c0.3-0.7,1-1.2,1.8-1.2c0.8,0,1.5,0.4,1.8,1.2l7.5,19.9c0.3,1-0.1,2.1-1.1,2.4c-0.2,0.1-0.4,0.1-0.6,0.1c-0.7,0-1.5-0.4-1.7-1.2
	L126,51.9z M124.6,48.2l-2.8-7.3l-2.8,7.3H124.6z"/>
<path class="st0" d="M133.4,45.3c0-6.7,5.7-12.1,12.4-12.2c3,0,5.7,1,7.8,2.6c0.8,0.7,0.9,1.9,0.3,2.7c-0.7,0.8-1.9,1-2.7,0.4
	c-1.5-1.2-3.3-1.9-5.5-1.9c-2.3,0-4.5,0.9-6.1,2.4c-1.5,1.6-2.5,3.6-2.5,5.9c0,2.3,0.9,4.4,2.5,5.9c1.6,1.5,3.7,2.4,6.1,2.4
	c2.1,0,3.9-0.6,5.5-1.9c0.8-0.6,2-0.4,2.7,0.4c0.6,0.8,0.5,2.1-0.3,2.7c-2.1,1.7-4.8,2.7-7.8,2.7C139,57.5,133.4,52,133.4,45.3z"/>
<path class="st0" d="M160.5,55.6v-20c0-1,0.8-1.9,1.9-1.9h0c0,0,0,0,0.1,0h11c1,0,1.9,0.8,1.9,1.9s-0.9,1.9-1.9,1.9h-9.2v6.2h7.9
	c1,0,1.9,0.9,1.9,1.9c0,1-0.8,1.9-1.9,1.9h-7.9v6.2h9.2c1,0,1.9,0.8,1.9,1.9c0,1-0.9,1.9-1.9,1.9h-11c-0.1,0-0.1,0-0.1,0l0,0
	C161.3,57.5,160.5,56.6,160.5,55.6z"/>
</svg>
