<svg width="197" height="64" viewBox="0 0 197 64" fill="none" xmlns="http://www.w3.org/2000/svg">
<path fill-rule="evenodd" clip-rule="evenodd" d="M32.9529 63.3104C32.1101 63.3104 31.2673 63.3104 30.4493 63.3104C15.1799 61.8726 5.38862 53.4441 1.64563 40.6774C-3.06409 24.6137 5.68608 11.2025 15.2543 5.3521C20.7076 1.9807 28.2927 -0.0768483 36.1505 0.989109C43.3391 1.9807 49.0651 5.32731 53.403 9.4424C57.617 13.4335 61.1864 19.3335 62.4258 26.1259C63.8388 33.7859 62.178 41.8921 58.7572 47.3955C53.8988 43.9249 46.9085 41.0741 38.4063 42.3631C37.5139 39.8842 37.6378 37.9506 36.6959 35.7195C35.7292 33.4636 33.3495 31.9763 33.0273 29.4229C32.8042 27.5637 33.4239 25.6053 33.2503 23.2503C34.6137 21.8125 36.4976 21.4406 38.1584 19.9285C38.8524 19.3087 42.2236 14.8961 40.662 14.1029C39.6704 13.5823 39.026 15.5903 38.6046 16.2844C36.8942 19.0112 34.0931 20.2011 30.8211 20.5234C31.1186 19.16 31.5648 18.4906 31.2673 17.4247C30.5237 14.6978 26.1858 14.9457 25.8883 17.8709C25.7148 19.6062 27.0038 20.2011 27.0286 21.5398C23.8309 21.1679 21.129 20.573 18.5758 19.2591C17.9066 18.9121 16.5184 17.7965 15.9483 18.689C15.1799 20.0524 19.6417 22.0108 20.2614 22.2587C22.1701 23.0767 24.872 23.4734 25.9875 24.6633C26.7807 25.5309 27.0533 29.1502 27.0286 31.059C26.9542 36.1905 24.9712 37.901 22.7898 40.9006C22.2693 41.6195 19.7409 44.2224 21.3025 45.0156C22.7402 45.7593 24.3267 42.9333 25.1942 42.0409C26.632 40.5287 27.6978 39.7106 28.5158 38.2728C29.3338 36.8102 29.5321 35.0006 30.5732 33.5876C31.3912 33.8603 31.9366 34.7279 32.5067 35.422C34.2419 37.4796 35.3821 40.1569 36.1753 42.8589C30.3997 44.3959 26.2601 47.0732 22.6907 51.0891C22.0462 51.8328 19.1708 54.4109 20.4102 55.4273C21.3025 56.171 22.5667 54.4605 23.0377 54.0639C28.3175 49.4034 36.2249 45.09 46.2393 45.8337C50.9242 46.1808 53.7748 47.9408 57.4434 49.7257C52.114 57.113 44.7272 62.418 32.9529 63.3104ZM33.176 6.49243C33.0768 6.51722 33.052 6.59158 33.052 6.71553C32.8785 7.06259 33.6222 7.43443 33.6222 7.97981C33.4734 8.50039 32.8042 8.79787 33.052 9.34324C33.8453 9.41761 34.0188 8.87224 34.5393 8.64913C34.9111 8.9714 35.1838 9.36803 35.9027 9.34324C36.0266 8.54997 35.3821 8.50039 35.3325 7.85586C35.4813 7.36007 36.0018 7.23612 35.9027 6.49243C35.3078 6.24453 35.0103 6.96343 34.4154 7.06259C33.9692 6.96343 33.5974 6.26932 33.176 6.49243ZM53.056 21.5894C52.1884 21.4654 51.3208 20.5234 50.4284 21.1431C50.0318 22.3826 51.42 22.7049 51.9157 23.4238C51.5687 24.2419 49.9575 25.0103 50.8746 26.0515C51.8909 26.2994 52.4115 25.283 53.3782 25.1343C53.8988 25.754 54.1714 27.1423 54.9894 27.0679C56.1545 26.9687 55.4108 25.3822 55.3365 24.2171C58.5341 24.1427 57.9888 21.9364 55.1134 22.0356C55.3117 21.4654 55.2621 20.2259 55.1134 19.631C53.6013 19.036 53.6757 20.92 53.056 21.5894ZM42.5459 32.8935C42.0501 32.9678 41.2073 32.6952 41.1825 33.2405C41.2569 33.8603 42.1245 33.6619 42.3228 34.1577C42.3971 34.6535 42.1245 35.4964 42.6698 35.5212C43.2647 35.3972 43.1656 34.5792 43.587 34.2569C44.0331 34.2073 44.6776 34.3561 44.9503 34.133C44.9751 33.3397 43.9836 33.5628 43.6861 33.0918C43.6861 32.6456 43.6861 32.1746 43.6861 31.7284C42.7194 31.5548 43.0912 32.6952 42.5459 32.8935ZM14.6593 36.3392C14.3123 36.6615 13.5191 36.5623 13.5191 37.2565C13.8165 37.7275 14.4115 37.2812 15.0064 37.3804C15.3286 37.777 15.3038 38.5207 15.9235 38.6447C16.2953 38.3968 16.1218 37.6283 16.1466 37.0334C16.4937 36.7359 17.1877 36.7855 17.2869 36.2401C17.0886 35.6203 16.4441 36.1161 15.7996 36.017C15.4773 35.6203 15.403 34.9758 14.8824 34.7527C14.461 34.9262 14.7337 35.7939 14.6593 36.3392ZM55.5843 37.9258C55.1877 38.2481 54.4441 38.2233 54.3202 38.843C54.5185 39.2644 55.386 38.9917 55.9314 39.0661C56.1793 39.4627 56.2288 40.0825 56.7246 40.2064C57.3195 40.0329 56.799 39.3884 56.9477 38.7191C57.3939 38.4464 57.9888 38.3224 58.2119 37.8018C57.964 37.43 57.1956 37.6035 56.6007 37.5787C56.3032 37.2317 56.3528 36.5376 55.8074 36.4384C55.7331 36.4384 55.6587 36.4384 55.5843 36.4384C55.3365 36.9094 55.5348 37.43 55.5843 37.9258ZM13.6182 48.9076C13.1473 48.858 13.296 47.7921 12.3541 47.8665C11.8335 48.3375 12.4532 49.0564 12.5771 49.577C11.9822 49.7505 11.3377 49.8496 11.2138 50.4942C11.313 51.0395 12.6019 50.7421 12.825 50.8412C12.8994 51.2874 12.8994 51.8328 13.0481 52.2047C13.2712 52.1799 13.296 52.3286 13.4943 52.3286C13.9653 52.0807 13.8413 51.2379 14.1884 50.8412C14.4858 51.0891 15.0559 51.0395 15.4526 51.1883C15.5517 50.99 15.7252 50.866 15.7996 50.6181C15.5269 50.1967 14.9816 50.048 14.6593 49.7009C14.7833 49.1803 15.2543 48.982 15.2295 48.3375C15.1055 48.3127 15.0559 48.2135 15.0064 48.1144C14.1388 47.9656 14.114 48.9572 13.6182 48.9076Z" fill="#DF0E5C"/>
<path d="M73.5804 27.4644V9.98768C73.5804 9.09525 74.2993 8.35156 75.2165 8.35156C76.1336 8.35156 76.8772 9.09525 76.8772 9.98768V25.8283H84.9086C85.7761 25.8283 86.5446 26.572 86.5446 27.4892C86.5446 28.3816 85.7761 29.1253 84.9086 29.1253H75.2908C75.2412 29.1253 75.2412 29.1253 75.2412 29.1253C75.2164 29.1253 75.2165 29.1253 75.2165 29.1253C74.2993 29.1006 73.5804 28.3569 73.5804 27.4644Z" fill="white"/>
<path d="M88.6268 21.6885C88.6516 17.6478 91.7996 14.2764 95.8649 14.2764C99.707 14.2764 102.781 17.152 103.004 21.1431C103.004 21.1679 103.004 21.2423 103.004 21.2919C103.004 21.3414 103.004 21.4902 102.979 21.5645C102.88 22.2834 102.26 22.7544 101.442 22.7544H92.0227C92.1715 23.4486 92.4937 24.217 93.039 24.7128C93.6587 25.4317 94.8486 25.9523 95.8897 26.0515C96.9555 26.1506 98.2197 25.878 98.9634 25.3078C99.5831 24.6633 100.798 24.7376 101.194 25.2086C101.591 25.6301 101.888 26.5225 101.194 27.1422C99.7318 28.4809 97.9966 29.1006 95.8897 29.1006C91.7996 29.0758 88.6516 25.7292 88.6268 21.6885ZM91.8492 20.2259H100.228C99.9301 19.036 98.418 17.3007 95.8401 17.0776C93.3365 17.2016 92.0723 19.0112 91.8492 20.2259Z" fill="white"/>
<path d="M120.256 21.7133V27.5141C120.256 28.3817 119.537 29.0758 118.695 29.0758C117.926 29.0758 117.331 28.5057 117.158 27.8115C116.042 28.6048 114.704 29.0758 113.216 29.0758C111.209 29.0758 109.449 28.2578 108.185 26.9191C106.92 25.5557 106.177 23.7212 106.177 21.7133C106.177 19.6557 106.92 17.8213 108.185 16.5074C109.449 15.144 111.209 14.2764 113.216 14.2764C114.704 14.2764 116.042 14.7722 117.158 15.5902C117.331 14.8465 117.926 14.2764 118.695 14.2764C119.562 14.2764 120.256 14.9953 120.256 15.8877V21.7133ZM117.108 21.7133C117.108 20.4738 116.662 19.4078 115.943 18.6641C115.224 17.8709 114.233 17.4495 113.192 17.4495C112.126 17.4495 111.11 17.8709 110.44 18.6641C109.721 19.4078 109.325 20.4738 109.325 21.7133C109.325 22.928 109.746 23.9939 110.44 24.7624C111.134 25.5061 112.126 25.9275 113.192 25.9275C114.233 25.9275 115.249 25.5061 115.943 24.7624C116.662 23.9939 117.108 22.928 117.108 21.7133Z" fill="white"/>
<path d="M135.179 15.8382C135.179 16.6563 134.485 17.4 133.617 17.4C132.923 17.4 132.353 17.5735 131.832 17.9701C131.262 18.3172 130.816 18.8378 130.469 19.3831C129.75 20.3251 129.403 21.4655 129.254 21.8621V27.4894C129.254 28.357 128.511 29.0511 127.618 29.0511C126.751 29.0511 126.057 28.3322 126.057 27.4894V15.8382C126.057 14.9706 126.776 14.3012 127.618 14.3012C128.511 14.3012 129.254 14.9953 129.254 15.8382V16.0365C129.428 15.8382 129.676 15.5903 129.874 15.4416C130.841 14.797 132.13 14.2517 133.617 14.2764C134.509 14.3012 135.179 14.9953 135.179 15.8382Z" fill="white"/>
<path d="M151.44 20.449V27.5389C151.44 28.4065 150.746 29.1006 149.903 29.1006C149.085 29.1006 148.341 28.3817 148.341 27.5389V20.449C148.341 18.7881 146.953 17.4495 145.267 17.4495C143.607 17.4495 142.293 18.7881 142.293 20.449V27.5389C142.293 27.638 142.293 27.7124 142.243 27.8363C142.094 28.5552 141.45 29.1006 140.682 29.1006C139.789 29.1006 139.12 28.3817 139.12 27.5389V20.449V15.8381C139.12 14.9705 139.814 14.2764 140.682 14.2764C141.301 14.2764 141.871 14.6234 142.144 15.1936C143.036 14.6234 144.127 14.2764 145.292 14.2764C148.688 14.2764 151.44 17.1024 151.44 20.449Z" fill="white"/>
<path d="M160.487 10.558C160.487 11.4504 159.793 12.1941 158.876 12.1941C157.984 12.1941 157.265 11.4504 157.265 10.558V9.93824C157.265 9.04581 157.984 8.3269 158.876 8.3269C159.793 8.3269 160.487 9.04581 160.487 9.93824V10.558ZM160.487 15.9373V27.4894C160.487 28.3818 159.793 29.1007 158.876 29.1007C157.984 29.1007 157.265 28.3818 157.265 27.4894V15.9373C157.265 14.9953 157.984 14.3012 158.876 14.3012C159.793 14.3012 160.487 14.9953 160.487 15.9373Z" fill="white"/>
<path d="M177.938 20.449V27.5389C177.938 28.4065 177.244 29.1006 176.401 29.1006C175.583 29.1006 174.839 28.3817 174.839 27.5389V20.449C174.839 18.7881 173.451 17.4495 171.766 17.4495C170.105 17.4495 168.791 18.7881 168.791 20.449V27.5389C168.791 27.638 168.791 27.7124 168.742 27.8363C168.593 28.5552 167.948 29.1006 167.18 29.1006C166.288 29.1006 165.618 28.3817 165.618 27.5389V20.449V15.8381C165.618 14.9705 166.312 14.2764 167.18 14.2764C167.8 14.2764 168.37 14.6234 168.642 15.1936C169.535 14.6234 170.626 14.2764 171.791 14.2764C175.187 14.2764 177.938 17.1024 177.938 20.449Z" fill="white"/>
<path d="M197 21.7876V27.291C197 31.1829 193.827 34.4056 189.886 34.4056C188.795 34.4056 187.68 34.1329 186.763 33.6619C185.994 33.3149 185.647 32.3233 186.044 31.53C186.44 30.7367 187.357 30.4393 188.175 30.7863C188.671 31.059 189.241 31.2077 189.861 31.2077C191.794 31.2077 193.356 29.8443 193.753 28.0347C192.687 28.7783 191.324 29.2246 189.861 29.2246C187.903 29.2246 186.093 28.3569 184.829 26.9687C183.565 25.6548 182.747 23.8204 182.747 21.7629C182.747 19.7053 183.54 17.8709 184.829 16.4827C186.093 15.144 187.903 14.2764 189.861 14.2764C191.398 14.2764 192.761 14.7474 193.827 15.5159C193.976 14.797 194.62 14.2764 195.389 14.2764C196.281 14.2764 196.95 14.9953 196.95 15.8381V21.7381V21.7876H197ZM193.827 21.7381C193.827 20.5482 193.356 19.4326 192.712 18.7137C191.943 17.8957 191.026 17.4495 189.886 17.4495C188.845 17.4495 187.878 17.8957 187.159 18.7137C186.44 19.4326 185.969 20.5482 185.969 21.7381C185.969 22.9776 186.44 24.1179 187.159 24.7872C187.878 25.5805 188.845 26.0019 189.886 26.0019C191.001 26.0019 191.943 25.5805 192.712 24.7872C193.356 24.1179 193.827 23.0023 193.827 21.7381Z" fill="white"/>
<path d="M73.283 51.5847C73.9027 50.841 75.0182 50.7418 75.7618 51.3368C77.2491 52.5515 79.827 53.9645 82.2315 53.9397C83.9171 53.9397 85.4539 53.4439 86.4702 52.7002C87.4865 51.9565 87.9327 51.1137 87.9327 50.2708C87.9327 49.8246 87.8336 49.5271 87.6353 49.1801C87.437 48.833 87.1395 48.5107 86.619 48.1637C85.6274 47.5191 83.9914 46.949 81.9836 46.5771H81.8597C80.2732 46.2797 78.7859 45.8582 77.497 45.2633C76.208 44.6435 75.0925 43.8007 74.3489 42.6356C73.8531 41.8175 73.5805 40.8755 73.5805 39.8591C73.5805 37.8264 74.7207 36.0663 76.2824 34.926C77.8688 33.7856 79.9262 33.1411 82.1323 33.1411C85.3796 33.1411 87.784 34.7277 89.5192 35.8432C90.2876 36.3886 90.5355 37.4793 89.9901 38.2478C89.4944 39.0659 88.4037 39.289 87.5857 38.7436C85.8505 37.6033 84.2145 36.5869 82.1323 36.5869C80.6203 36.5869 79.2569 37.0579 78.3398 37.7272C77.4226 38.3965 77.0508 39.1402 77.0508 39.8591C77.0508 40.2558 77.1252 40.5284 77.2987 40.8011C77.4722 41.0738 77.7696 41.3713 78.2158 41.6688C79.0834 42.2885 80.6203 42.8091 82.4546 43.1562H82.5289C84.2641 43.5032 85.8505 43.9246 87.1891 44.5692C88.5772 45.2385 89.7918 46.1309 90.5603 47.3704C91.056 48.1885 91.3783 49.2048 91.3783 50.246C91.3783 52.4027 90.1636 54.2619 88.4781 55.5014C86.8173 56.7161 84.6111 57.435 82.2315 57.435C78.5876 57.4102 75.4891 55.5758 73.5805 54.0636C72.812 53.4439 72.7129 52.3283 73.283 51.5847Z" fill="white"/>
<path d="M104.491 48.2628H100.327V55.6006C100.327 56.617 99.4839 57.4598 98.4428 57.4598C97.4265 57.4598 96.5837 56.617 96.5837 55.6006V35.6449C96.5837 34.6037 97.4265 33.7856 98.4428 33.7856H98.4676H104.491C108.507 33.7856 111.754 37.0331 111.754 41.049C111.779 45.0154 108.532 48.2628 104.491 48.2628ZM100.327 44.5196H104.491C106.449 44.5196 107.986 42.9578 108.011 41.0738C107.986 39.1154 106.449 37.5537 104.491 37.5537H100.327V44.5196Z" fill="white"/>
<path d="M126.007 51.8822H117.802L116.141 56.27C115.844 57.0137 115.125 57.4599 114.382 57.4599C114.134 57.4599 113.935 57.4351 113.737 57.3607C112.746 56.9889 112.275 55.8981 112.622 54.9313L120.108 35.0004C120.405 34.2567 121.149 33.7857 121.892 33.8105C122.661 33.7857 123.38 34.2567 123.677 35.0004L131.163 54.9313C131.51 55.9229 131.039 56.9889 130.048 57.3607C129.874 57.4351 129.651 57.4599 129.403 57.4599C128.659 57.4599 127.941 57.0137 127.668 56.27L126.007 51.8822ZM124.619 48.1637L121.868 40.9004L119.116 48.1637H124.619Z" fill="white"/>
<path d="M133.394 45.2882C133.419 38.595 139.046 33.1412 145.813 33.1165C148.787 33.1165 151.489 34.108 153.621 35.7442C154.439 36.4135 154.563 37.6034 153.968 38.4462C153.299 39.2891 152.035 39.4378 151.266 38.8181C149.779 37.6034 147.92 36.9589 145.813 36.9589C143.483 36.9589 141.301 37.9009 139.715 39.3883C138.203 40.95 137.236 42.9828 137.236 45.2634C137.236 47.5441 138.178 49.6512 139.715 51.1386C141.301 52.626 143.458 53.568 145.813 53.568C147.92 53.568 149.729 52.9234 151.266 51.7087C152.035 51.1386 153.299 51.2625 153.968 52.0806C154.588 52.9234 154.439 54.1381 153.621 54.7827C151.489 56.4932 148.787 57.4847 145.813 57.4847C139.046 57.4847 133.419 52.031 133.394 45.2882Z" fill="white"/>
<path d="M160.512 55.6006V35.6449C160.512 34.6037 161.33 33.7856 162.371 33.7856H162.396C162.396 33.7856 162.396 33.7856 162.47 33.7856H173.427C174.418 33.7856 175.286 34.6037 175.286 35.6449C175.286 36.686 174.418 37.5289 173.427 37.5289H164.255V43.7263H172.138C173.154 43.7263 173.997 44.594 173.997 45.5855C173.997 46.6267 173.154 47.4696 172.138 47.4696H164.255V53.6918H173.427C174.418 53.6918 175.286 54.5346 175.286 55.5758C175.286 56.5922 174.418 57.435 173.427 57.435H162.47C162.396 57.435 162.396 57.4102 162.396 57.4102L162.371 57.435C161.33 57.4846 160.512 56.617 160.512 55.6006Z" fill="white"/>
</svg>
