<svg width="22" height="20" viewBox="0 0 22 20" fill="none" xmlns="http://www.w3.org/2000/svg">
<path d="M1.375 17.875C1.375 18.6355 1.98945 19.25 2.75 19.25H9.625V12.375H1.375V17.875ZM12.375 19.25H19.25C20.0105 19.25 20.625 18.6355 20.625 17.875V12.375H12.375V19.25ZM20.625 5.5H18.816C19.0824 4.98008 19.25 4.4043 19.25 3.78125C19.25 1.69727 17.5527 0 15.4688 0C13.6812 0 12.5254 0.915235 11.043 2.93477C9.56055 0.915235 8.40469 0 6.61719 0C4.5332 0 2.83594 1.69727 2.83594 3.78125C2.83594 4.4043 2.99922 4.98008 3.26992 5.5H1.375C0.614453 5.5 0 6.11445 0 6.875V10.3125C0 10.6906 0.309375 11 0.6875 11H21.3125C21.6906 11 22 10.6906 22 10.3125V6.875C22 6.11445 21.3855 5.5 20.625 5.5ZM6.61289 5.5C5.66328 5.5 4.89414 4.73086 4.89414 3.78125C4.89414 2.83164 5.66328 2.0625 6.61289 2.0625C7.46797 2.0625 8.09961 2.2043 10.3125 5.5H6.61289ZM15.4688 5.5H11.7691C13.9777 2.21289 14.5922 2.0625 15.4688 2.0625C16.4184 2.0625 17.1875 2.83164 17.1875 3.78125C17.1875 4.73086 16.4184 5.5 15.4688 5.5Z" fill="black"/>
</svg>
