<svg width="27" height="27" viewBox="0 0 27 27" fill="none" xmlns="http://www.w3.org/2000/svg">
<path d="M1.23883 9.37064C1.33412 8.92593 1.36589 8.44946 1.49295 8.03652C2.22354 5.33652 3.8753 3.43064 6.60707 2.70005C9.02118 2.06475 11.1812 2.66828 13.0553 4.32005C13.3094 4.57417 13.5635 4.82828 13.8494 5.0824C13.9447 4.98711 14.04 4.86005 14.1671 4.76475C15.3424 3.49417 16.7718 2.73181 18.4871 2.50946C20.52 2.28711 22.3624 2.82711 23.8871 4.22475C25.7612 5.94005 26.5871 8.13181 26.3647 10.7048C26.2059 12.4518 25.4753 13.9448 24.2682 15.2153C21.06 18.6142 17.82 22.013 14.6118 25.38C14.0718 25.9518 13.5635 25.9518 13.0235 25.38C9.8153 21.9812 6.5753 18.6142 3.36707 15.2153C2.16001 13.9448 1.46118 12.42 1.2706 10.673C1.2706 10.6095 1.23883 10.5459 1.23883 10.4506C1.23883 10.1012 1.23883 9.75181 1.23883 9.37064ZM13.8177 23.6012C13.8812 23.5695 13.8812 23.5377 13.9129 23.5059C16.9624 20.3295 19.98 17.1212 23.0294 13.913C23.3153 13.5953 23.6012 13.2777 23.7918 12.8965C25.0941 10.673 24.8718 8.06828 23.1882 6.06711C21.4094 3.93887 18.2647 3.62122 16.1365 5.40005C15.5647 5.87652 15.0882 6.44828 14.58 6.95652C14.1035 7.43299 13.5635 7.43299 13.1188 6.95652C12.7059 6.54358 12.3247 6.09887 11.88 5.68593C10.5141 4.41534 8.89412 3.97064 7.08354 4.41534C4.76471 4.98711 3.24001 7.17887 3.08118 9.37064C2.92236 11.1812 3.52589 12.7377 4.79648 14.0718C7.56001 16.9942 10.3235 19.9165 13.1188 22.8389C13.3094 23.093 13.5635 23.3471 13.8177 23.6012Z" fill="white" stroke="white" stroke-miterlimit="10"/>
</svg>
