<svg width="59" height="51" viewBox="0 0 59 51" fill="none" xmlns="http://www.w3.org/2000/svg">
<path d="M53.4688 25.227H44.25V18.0193C44.25 14.0438 47.5572 10.8116 51.625 10.8116H52.5469C54.0795 10.8116 55.3125 9.60654 55.3125 8.10869V2.7029C55.3125 1.20504 54.0795 0 52.5469 0H51.625C41.4383 0 33.1875 8.06364 33.1875 18.0193V45.0483C33.1875 48.0327 35.665 50.4541 38.7188 50.4541H53.4688C56.5225 50.4541 59 48.0327 59 45.0483V30.6328C59 27.6484 56.5225 25.227 53.4688 25.227ZM20.2812 25.227H11.0625V18.0193C11.0625 14.0438 14.3697 10.8116 18.4375 10.8116H19.3594C20.892 10.8116 22.125 9.60654 22.125 8.10869V2.7029C22.125 1.20504 20.892 0 19.3594 0H18.4375C8.25078 0 0 8.06364 0 18.0193V45.0483C0 48.0327 2.47754 50.4541 5.53125 50.4541H20.2812C23.335 50.4541 25.8125 48.0327 25.8125 45.0483V30.6328C25.8125 27.6484 23.335 25.227 20.2812 25.227Z" fill="#DF0E5C"/>
</svg>
