<svg width="35" height="35" viewBox="0 0 35 35" fill="none" xmlns="http://www.w3.org/2000/svg">
<rect width="35" height="35" rx="3" fill="#D9D9D9"/>
<path d="M28.0938 24.75H7.78125C7.57405 24.75 7.37534 24.8323 7.22882 24.9788C7.08231 25.1253 7 25.324 7 25.5312V27.0938C7 27.301 7.08231 27.4997 7.22882 27.6462C7.37534 27.7927 7.57405 27.875 7.78125 27.875H28.0938C28.301 27.875 28.4997 27.7927 28.6462 27.6462C28.7927 27.4997 28.875 27.301 28.875 27.0938V25.5312C28.875 25.324 28.7927 25.1253 28.6462 24.9788C28.4997 24.8323 28.301 24.75 28.0938 24.75ZM28.0938 18.5H7.78125C7.57405 18.5 7.37534 18.5823 7.22882 18.7288C7.08231 18.8753 7 19.074 7 19.2812V20.8438C7 21.051 7.08231 21.2497 7.22882 21.3962C7.37534 21.5427 7.57405 21.625 7.78125 21.625H28.0938C28.301 21.625 28.4997 21.5427 28.6462 21.3962C28.7927 21.2497 28.875 21.051 28.875 20.8438V19.2812C28.875 19.074 28.7927 18.8753 28.6462 18.7288C28.4997 18.5823 28.301 18.5 28.0938 18.5ZM28.0938 12.25H7.78125C7.57405 12.25 7.37534 12.3323 7.22882 12.4788C7.08231 12.6253 7 12.824 7 13.0312V14.5938C7 14.801 7.08231 14.9997 7.22882 15.1462C7.37534 15.2927 7.57405 15.375 7.78125 15.375H28.0938C28.301 15.375 28.4997 15.2927 28.6462 15.1462C28.7927 14.9997 28.875 14.801 28.875 14.5938V13.0312C28.875 12.824 28.7927 12.6253 28.6462 12.4788C28.4997 12.3323 28.301 12.25 28.0938 12.25ZM28.0938 6H7.78125C7.57405 6 7.37534 6.08231 7.22882 6.22882C7.08231 6.37534 7 6.57405 7 6.78125V8.34375C7 8.55095 7.08231 8.74966 7.22882 8.89618C7.37534 9.04269 7.57405 9.125 7.78125 9.125H28.0938C28.301 9.125 28.4997 9.04269 28.6462 8.89618C28.7927 8.74966 28.875 8.55095 28.875 8.34375V6.78125C28.875 6.57405 28.7927 6.37534 28.6462 6.22882C28.4997 6.08231 28.301 6 28.0938 6Z" fill="#2C2C2C"/>
</svg>
