<svg width="35" height="35" viewBox="0 0 35 35" fill="none" xmlns="http://www.w3.org/2000/svg">
<rect width="35" height="35" rx="3" fill="#2C2C2C"/>
<path d="M7.78125 25.25H28.0938C28.1683 25.25 28.2399 25.2796 28.2926 25.3324C28.3454 25.3851 28.375 25.4567 28.375 25.5312V27.0938C28.375 27.1683 28.3454 27.2399 28.2926 27.2926C28.2399 27.3454 28.1683 27.375 28.0938 27.375H7.78125C7.70666 27.375 7.63512 27.3454 7.58238 27.2926C7.52963 27.2399 7.5 27.1683 7.5 27.0938V25.5312C7.5 25.4567 7.52963 25.3851 7.58238 25.3324C7.63512 25.2796 7.70666 25.25 7.78125 25.25ZM7.78125 19H28.0938C28.1683 19 28.2399 19.0296 28.2926 19.0824C28.3454 19.1351 28.375 19.2067 28.375 19.2812V20.8438C28.375 20.9183 28.3454 20.9899 28.2926 21.0426C28.2399 21.0954 28.1683 21.125 28.0938 21.125H7.78125C7.70666 21.125 7.63512 21.0954 7.58238 21.0426C7.52963 20.9899 7.5 20.9183 7.5 20.8438V19.2812C7.5 19.2067 7.52963 19.1351 7.58238 19.0824C7.63512 19.0296 7.70666 19 7.78125 19ZM7.78125 12.75H28.0938C28.1683 12.75 28.2399 12.7796 28.2926 12.8324C28.3454 12.8851 28.375 12.9567 28.375 13.0312V14.5938C28.375 14.6683 28.3454 14.7399 28.2926 14.7926C28.2399 14.8454 28.1683 14.875 28.0938 14.875H7.78125C7.70666 14.875 7.63512 14.8454 7.58238 14.7926C7.52963 14.7399 7.5 14.6683 7.5 14.5938V13.0312C7.5 12.9567 7.52963 12.8851 7.58238 12.8324C7.63512 12.7796 7.70666 12.75 7.78125 12.75ZM7.78125 6.5H28.0938C28.1683 6.5 28.2399 6.52963 28.2926 6.58238C28.3454 6.63512 28.375 6.70666 28.375 6.78125V8.34375C28.375 8.41834 28.3454 8.48988 28.2926 8.54262C28.2399 8.59537 28.1683 8.625 28.0938 8.625H7.78125C7.70666 8.625 7.63512 8.59537 7.58238 8.54262C7.52963 8.48988 7.5 8.41834 7.5 8.34375V6.78125C7.5 6.70666 7.52963 6.63512 7.58238 6.58238C7.63512 6.52963 7.70666 6.5 7.78125 6.5Z" fill="white" stroke="white"/>
</svg>
