<?xml version="1.0" encoding="utf-8"?>
<!-- Generator: Adobe Illustrator 24.0.2, SVG Export Plug-In . SVG Version: 6.00 Build 0)  -->
<svg version="1.1" id="Layer_1" xmlns="http://www.w3.org/2000/svg" xmlns:xlink="http://www.w3.org/1999/xlink" x="0px" y="0px"
	 viewBox="0 0 94 94" style="enable-background:new 0 0 94 94;" xml:space="preserve">
<style type="text/css">
	.st0{fill:#01AD1C;}
	.st1{fill:#FFFFFF;}
</style>
<path class="st0" d="M94,47.1c0,26-21,47-47,47s-47-21-47-47s21-47,47-47S94,21.1,94,47.1z"/>
<g>
	<path class="st1" d="M70,59.8c-0.1,0.4-0.3,0.8-0.4,1.2c-4.6-4.6-9.2-9.2-13.8-13.8c4.6-4.6,9.2-9.2,13.9-13.8
		c0.1,0.3,0.2,0.7,0.3,1.1C70,42.9,70,51.4,70,59.8z"/>
	<path class="st1" d="M26.4,31.3c0.6-0.1,1-0.2,1.4-0.3c0.2-0.1,0.3,0,0.4,0c12.5,0,24.9,0,37.4,0c0.6,0,1.2,0.2,1.8,0.2
		c0,0.1,0,0.1,0,0.2c-0.1,0.1-0.2,0.2-0.3,0.3c-6.2,6.4-12.6,12.7-18.9,19c-0.9,0.9-1.7,0.9-2.6,0c-6.4-6.3-12.7-12.7-19-19
		C26.7,31.6,26.6,31.5,26.4,31.3z"/>
	<path class="st1" d="M40.3,49.2c1.2,1.2,2.4,2.4,3.6,3.6c1.3,1.3,2.8,1.6,4.4,1.1c0.6-0.2,1.2-0.7,1.7-1.1c1.2-1.1,2.2-2.2,3.3-3.3
		c0.1-0.1,0.2-0.2,0.3-0.3c4.6,4.6,9.2,9.1,13.9,13.8c-0.6,0.1-1,0.2-1.4,0.3c-0.2,0.1-0.4,0-0.6,0c-12.4,0-24.8,0-37.3,0
		c-0.7,0-1.3-0.1-1.9-0.4C31.1,58.3,35.7,53.8,40.3,49.2z"/>
	<path class="st1" d="M24.4,60.9c-0.3-0.5-0.4-1.1-0.4-1.7c0-4,0-8,0-12.1c0.1-4,0.1-8,0.1-11.9c0-0.6,0.1-1.2,0.4-1.8
		c4.6,4.6,9.2,9.2,13.9,13.7C33.6,51.7,29.1,56.3,24.4,60.9z"/>
</g>
</svg>
