<svg width="22" height="22" viewBox="0 0 22 22" fill="none" xmlns="http://www.w3.org/2000/svg">
<path d="M11.0303 0C5.04395 0 0 4.80957 0 10.7471C0 10.9375 0.00488281 21.875 0.00488281 21.875L11.0303 21.8652C17.0215 21.8652 21.875 16.8701 21.875 10.9326C21.875 4.99512 17.0215 0 11.0303 0ZM10.9375 17.1875C9.99023 17.1875 9.08691 16.9775 8.28125 16.5967L4.32129 17.5781L5.43945 13.916C4.96094 13.0322 4.6875 12.0166 4.6875 10.9375C4.6875 7.48535 7.48535 4.6875 10.9375 4.6875C14.3896 4.6875 17.1875 7.48535 17.1875 10.9375C17.1875 14.3896 14.3896 17.1875 10.9375 17.1875Z" fill="black"/>
</svg>
