<svg width="17" height="18" viewBox="0 0 17 18" fill="none" xmlns="http://www.w3.org/2000/svg">
<path d="M15.7857 10.8508H10.3214V16.3115C10.3214 16.9816 9.77766 17.525 9.10714 17.525H7.89286C7.22234 17.525 6.67857 16.9816 6.67857 16.3115V10.8508H1.21429C0.543772 10.8508 0 10.3074 0 9.63731V8.42382C0 7.75374 0.543772 7.21033 1.21429 7.21033H6.67857V1.7496C6.67857 1.07953 7.22234 0.53611 7.89286 0.53611H9.10714C9.77766 0.53611 10.3214 1.07953 10.3214 1.7496V7.21033H15.7857C16.4562 7.21033 17 7.75374 17 8.42382V9.63731C17 10.3074 16.4562 10.8508 15.7857 10.8508Z" fill="white"/>
</svg>
