<svg width="20" height="17" viewBox="0 0 20 17" fill="none" xmlns="http://www.w3.org/2000/svg">
<path d="M7 8.23529C9.20937 8.23529 11 6.392 11 4.11765C11 1.84329 9.20937 0 7 0C4.79062 0 3 1.84329 3 4.11765C3 6.392 4.79062 8.23529 7 8.23529ZM9.79999 9.26471H9.27812C8.58437 9.59283 7.8125 9.77941 7 9.77941C6.1875 9.77941 5.41875 9.59283 4.72187 9.26471H4.2C1.88125 9.26471 0 11.2013 0 13.5882V14.9265C0 15.779 0.671875 16.4706 1.5 16.4706H12.5C13.3281 16.4706 14 15.779 14 14.9265V13.5882C14 11.2013 12.1187 9.26471 9.79999 9.26471ZM19.8937 5.13419L19.025 4.23024C18.8812 4.07904 18.6469 4.07904 18.5 4.22702L15.225 7.57261L13.8031 6.09927C13.6594 5.94807 13.425 5.94807 13.2781 6.09605L12.4 6.99357C12.2531 7.14154 12.2531 7.38281 12.3969 7.53401L14.95 10.1815C15.0937 10.3327 15.3281 10.3327 15.475 10.1847L19.8906 5.67463C20.0344 5.52344 20.0375 5.28217 19.8937 5.13419V5.13419Z" fill="#2C2C2C"/>
</svg>
