<svg width="23" height="23" viewBox="0 0 23 23" fill="none" xmlns="http://www.w3.org/2000/svg">
<path fill-rule="evenodd" clip-rule="evenodd" d="M11.4684 22.0094C11.1721 22.0094 10.8758 22.0094 10.5882 22.0094C5.22003 21.5039 1.77777 18.5407 0.46186 14.0524C-1.19391 8.40493 1.88234 3.69 5.24618 1.63322C7.16339 0.447949 9.83006 -0.275413 12.5926 0.0993406C15.1198 0.447949 17.1329 1.6245 18.658 3.07122C20.1394 4.47437 21.3943 6.54859 21.8301 8.93656C22.3268 11.6296 21.7429 14.4794 20.5403 16.4142C18.8322 15.1941 16.3747 14.1918 13.3856 14.645C13.0719 13.7735 13.1155 13.0937 12.7843 12.3093C12.4444 11.5163 11.6078 10.9933 11.4946 10.0957C11.4161 9.44204 11.634 8.75354 11.573 7.92559C12.0523 7.42011 12.7146 7.28938 13.2985 6.75776C13.5425 6.53988 14.7277 4.98857 14.1786 4.70968C13.8301 4.52666 13.6035 5.23259 13.4553 5.47662C12.854 6.43529 11.8693 6.85362 10.719 6.96692C10.8235 6.48759 10.9804 6.25227 10.8758 5.87752C10.6144 4.91885 9.08932 5.006 8.98474 6.03439C8.92374 6.64446 9.3769 6.85362 9.38562 7.32424C8.26143 7.19352 7.31154 6.98435 6.41394 6.52245C6.17864 6.40043 5.69062 6.00825 5.49019 6.322C5.22003 6.80133 6.78866 7.48983 7.00653 7.57699C7.67755 7.86459 8.62745 8.00403 9.0196 8.42236C9.29847 8.72739 9.39433 9.99981 9.38562 10.6709C9.35947 12.4749 8.6623 13.0763 7.89542 14.1308C7.71241 14.3836 6.82352 15.2987 7.37254 15.5775C7.87799 15.839 8.43572 14.8455 8.74074 14.5317C9.24618 14.0001 9.62091 13.7125 9.90849 13.207C10.1961 12.6928 10.2658 12.0566 10.6318 11.5598C10.9194 11.6557 11.1111 11.9607 11.3115 12.2048C11.9216 12.9281 12.3224 13.8694 12.6013 14.8193C10.5708 15.3597 9.11546 16.3009 7.86056 17.7128C7.63398 17.9742 6.62309 18.8806 7.05882 19.2379C7.37254 19.4994 7.81699 18.898 7.98256 18.7586C9.83877 17.1201 12.6187 15.6037 16.1394 15.8651C17.7865 15.9872 18.7887 16.6059 20.0784 17.2334C18.2048 19.8306 15.6078 21.6956 11.4684 22.0094ZM11.5468 2.03412C11.512 2.04283 11.5033 2.06898 11.5033 2.11255C11.4423 2.23457 11.7037 2.36529 11.7037 2.55703C11.6514 2.74005 11.4161 2.84463 11.5033 3.03636C11.7821 3.06251 11.8431 2.87078 12.0261 2.79234C12.1569 2.90564 12.2527 3.04508 12.5054 3.03636C12.549 2.75748 12.3224 2.74005 12.305 2.51345C12.3573 2.33915 12.5403 2.29557 12.5054 2.03412C12.2963 1.94696 12.1917 2.1997 11.9826 2.23457C11.8257 2.1997 11.695 1.95568 11.5468 2.03412ZM18.536 7.34167C18.2309 7.2981 17.9259 6.96692 17.6122 7.1848C17.4728 7.62056 17.9608 7.73386 18.1351 7.9866C18.0131 8.2742 17.4466 8.54437 17.7691 8.91041C18.1264 8.99756 18.3094 8.64024 18.6492 8.58795C18.8322 8.80583 18.9281 9.29388 19.2157 9.26774C19.6253 9.23287 19.3638 8.6751 19.3377 8.26549C20.4619 8.23934 20.2702 7.46369 19.2593 7.49855C19.329 7.2981 19.3116 6.86234 19.2593 6.65317C18.7277 6.44401 18.7538 7.10636 18.536 7.34167ZM14.841 11.3158C14.6667 11.342 14.3704 11.2461 14.3617 11.4378C14.3878 11.6557 14.6928 11.586 14.7625 11.7603C14.7887 11.9346 14.6928 12.2309 14.8845 12.2396C15.0937 12.196 15.0588 11.9084 15.207 11.7951C15.3638 11.7777 15.5904 11.83 15.6863 11.7516C15.695 11.4727 15.3464 11.5511 15.2418 11.3855C15.2418 11.2287 15.2418 11.0631 15.2418 10.9062C14.902 10.8452 15.0327 11.2461 14.841 11.3158ZM5.03703 12.5272C4.91502 12.6405 4.63616 12.6057 4.63616 12.8497C4.74073 13.0153 4.94988 12.8584 5.15903 12.8933C5.27232 13.0327 5.26361 13.2942 5.48147 13.3377C5.61219 13.2506 5.55119 12.9804 5.5599 12.7712C5.68191 12.6667 5.92592 12.6841 5.96078 12.4924C5.89106 12.2745 5.66448 12.4488 5.4379 12.4139C5.32461 12.2745 5.29847 12.0479 5.11546 11.9694C4.96731 12.0305 5.06317 12.3355 5.03703 12.5272ZM19.4248 13.085C19.2854 13.1983 19.024 13.1896 18.9804 13.4075C19.0501 13.5556 19.3551 13.4597 19.5468 13.4859C19.634 13.6253 19.6514 13.8432 19.8257 13.8868C20.0349 13.8258 19.8519 13.5992 19.9041 13.3639C20.061 13.268 20.2702 13.2244 20.3486 13.0414C20.2614 12.9107 19.9913 12.9717 19.7821 12.963C19.6776 12.841 19.695 12.5969 19.5033 12.5621C19.4771 12.5621 19.451 12.5621 19.4248 12.5621C19.3377 12.7277 19.4074 12.9107 19.4248 13.085ZM4.67101 16.9458C4.50544 16.9284 4.55772 16.5536 4.22657 16.5798C4.04356 16.7454 4.26143 16.9981 4.305 17.1811C4.09585 17.2421 3.86927 17.277 3.8257 17.5036C3.86056 17.6953 4.31372 17.5908 4.39215 17.6256C4.41829 17.7825 4.41829 17.9742 4.47058 18.1049C4.54901 18.0962 4.55772 18.1485 4.62744 18.1485C4.79302 18.0614 4.74945 17.7651 4.87145 17.6256C4.97603 17.7128 5.17646 17.6953 5.3159 17.7476C5.35075 17.6779 5.41176 17.6343 5.4379 17.5472C5.34204 17.399 5.15032 17.3467 5.03703 17.2247C5.0806 17.0417 5.24618 16.972 5.23746 16.7454C5.19389 16.7367 5.17646 16.7018 5.15903 16.6669C4.85402 16.6147 4.84531 16.9633 4.67101 16.9458Z" fill="#DF0E5C"/>
</svg>
