<svg width="13" height="13" viewBox="0 0 13 13" fill="none" xmlns="http://www.w3.org/2000/svg">
<path d="M9.79032 0.877287L6.43592 4.23169L3.08152 0.877286C2.6699 0.465673 2.00228 0.465674 1.59067 0.877287L0.845247 1.62271C0.433634 2.03432 0.433634 2.70194 0.845247 3.11355L4.19965 6.46796L0.845247 9.82236C0.433634 10.234 0.433634 10.9016 0.845247 11.3132L1.59067 12.0586C2.00228 12.4702 2.6699 12.4702 3.08152 12.0586L6.43592 8.70422L9.79032 12.0586C10.2019 12.4702 10.8696 12.4702 11.2812 12.0586L12.0266 11.3132C12.4382 10.9016 12.4382 10.234 12.0266 9.82236L8.67219 6.46796L12.0266 3.11356C12.4382 2.70194 12.4382 2.03432 12.0266 1.62271L11.2812 0.877287C10.8696 0.465674 10.2019 0.465674 9.79032 0.877287Z" fill="#FF0000"/>
</svg>
