<svg width="59" height="51" viewBox="0 0 59 51" fill="none" xmlns="http://www.w3.org/2000/svg">
<path d="M53.4688 0H38.7188C35.665 0 33.1875 2.42134 33.1875 5.40579V19.8212C33.1875 22.8057 35.665 25.227 38.7188 25.227H47.9375V32.4347C47.9375 36.4103 44.6303 39.6425 40.5625 39.6425H39.6406C38.108 39.6425 36.875 40.8475 36.875 42.3454V47.7512C36.875 49.249 38.108 50.4541 39.6406 50.4541H40.5625C50.7492 50.4541 59 42.3904 59 32.4347V5.40579C59 2.42134 56.5225 0 53.4688 0ZM20.2812 0H5.53125C2.47754 0 0 2.42134 0 5.40579V19.8212C0 22.8057 2.47754 25.227 5.53125 25.227H14.75V32.4347C14.75 36.4103 11.4428 39.6425 7.375 39.6425H6.45312C4.92051 39.6425 3.6875 40.8475 3.6875 42.3454V47.7512C3.6875 49.249 4.92051 50.4541 6.45312 50.4541H7.375C17.5617 50.4541 25.8125 42.3904 25.8125 32.4347V5.40579C25.8125 2.42134 23.335 0 20.2812 0Z" fill="#DF0E5C"/>
</svg>
