<svg width="21" height="21" viewBox="0 0 21 21" fill="none" xmlns="http://www.w3.org/2000/svg">
<path d="M20.7537 16.6518C20.7043 16.8247 20.6302 16.9977 20.5808 17.1706C18.5302 15.0953 16.4549 13.0447 14.4043 11.0188C16.4796 8.96824 18.5302 6.91765 20.6055 4.86707C20.6549 4.99059 20.7043 5.16354 20.7537 5.33648C20.7537 9.11648 20.7537 12.8718 20.7537 16.6518Z" fill="white"/>
<path d="M1.28516 3.92823C1.53222 3.87882 1.72986 3.8294 1.92751 3.77999C2.00163 3.75529 2.05104 3.77999 2.12516 3.77999C7.70869 3.77999 13.2675 3.77999 18.851 3.77999C19.1228 3.77999 19.3946 3.85411 19.6663 3.87882C19.6663 3.90352 19.6663 3.92823 19.6663 3.95293C19.6169 4.00235 19.5675 4.05176 19.5181 4.10117C16.7263 6.94235 13.9099 9.78352 11.0934 12.6C10.6981 12.9953 10.3275 12.9953 9.93221 12.6C7.09104 9.78352 4.27457 6.94235 1.4581 4.10117C1.40869 4.05176 1.35927 4.00235 1.28516 3.92823Z" fill="white"/>
<path d="M7.51104 11.9082C8.02986 12.4271 8.57339 12.9706 9.14163 13.5141C9.70986 14.0824 10.3769 14.2306 11.1181 13.9835C11.3899 13.8847 11.6616 13.6871 11.884 13.4894C12.4028 13.02 12.8722 12.5012 13.3663 12.0071C13.4157 11.9576 13.4652 11.9082 13.4899 11.8835C15.5652 13.9341 17.6157 15.96 19.7157 18.06C19.4687 18.1094 19.271 18.1588 19.0734 18.2082C18.9993 18.2329 18.9005 18.2082 18.8016 18.2082C13.2428 18.2082 7.70869 18.2082 2.14986 18.2082C1.85339 18.2082 1.55692 18.1835 1.28516 18.0353C3.38516 15.9847 5.43574 13.9588 7.51104 11.9082Z" fill="white"/>
<path d="M0.395597 17.1212C0.272068 16.8988 0.222656 16.6271 0.222656 16.3553C0.222656 14.5518 0.222656 12.7729 0.222656 10.9694C0.247362 9.19058 0.247362 7.41176 0.247362 5.63293C0.247362 5.36117 0.296774 5.08941 0.420303 4.84235C2.4956 6.89293 4.54619 8.94352 6.62148 10.9694C4.52148 13.02 2.47089 15.0706 0.395597 17.1212Z" fill="white"/>
</svg>
