<?xml version="1.0" encoding="utf-8"?>
<!-- Generator: Adobe Illustrator 24.0.2, SVG Export Plug-In . SVG Version: 6.00 Build 0)  -->
<svg version="1.1" id="Layer_1" xmlns="http://www.w3.org/2000/svg" xmlns:xlink="http://www.w3.org/1999/xlink" x="0px" y="0px"
	 viewBox="0 0 94 94" style="enable-background:new 0 0 94 94;" xml:space="preserve">
<style type="text/css">
	.st0{fill:#DE8602;}
	.st1{fill:#FFFFFF;}
</style>
<path class="st0" d="M94,47c0,26-21,47-47,47S0,73,0,47S21,0,47,0S94,21,94,47z"/>
<path class="st1" d="M50,49.7c6.7,0,12.1-5.4,12.1-12.1c0-6.7-5.4-12.1-12.1-12.1s-12.1,5.4-12.1,12.1C37.9,44.3,43.3,49.7,50,49.7z
	 M60.8,52.4h-4.6c-1.9,0.9-3.9,1.3-6.1,1.3s-4.2-0.5-6.1-1.3h-4.6c-5.9,0-10.8,4.8-10.8,10.8v1.3c0,2.2,1.8,4,4,4h34.9
	c2.2,0,4-1.8,4-4v-1.3C71.5,57.2,66.7,52.4,60.8,52.4z"/>
</svg>
