<svg width="82" height="82" viewBox="0 0 82 82" fill="none" xmlns="http://www.w3.org/2000/svg">
<circle cx="41" cy="41" r="41" fill="#DF0E5C"/>
<path d="M64.4469 55.2682C64.3363 55.6553 64.1704 56.0424 64.0599 56.4294C59.4704 51.7847 54.8257 47.1953 50.2363 42.6612C54.881 38.0718 59.4704 33.4824 64.1152 28.8929C64.2257 29.1694 64.3363 29.5565 64.4469 29.9435C64.4469 38.4035 64.4469 46.8082 64.4469 55.2682Z" fill="white"/>
<path d="M20.875 26.7918C21.4279 26.6812 21.8703 26.5706 22.3126 26.46C22.4785 26.4047 22.5891 26.46 22.755 26.46C35.2515 26.46 47.6927 26.46 60.1891 26.46C60.7974 26.46 61.4056 26.6259 62.0138 26.6812C62.0138 26.7365 62.0138 26.7918 62.0138 26.8471C61.9032 26.9576 61.7927 27.0682 61.6821 27.1788C55.4338 33.5376 49.1303 39.8965 42.8268 46.2C41.9421 47.0847 41.1126 47.0847 40.2279 46.2C33.8691 39.8965 27.5656 33.5376 21.2621 27.1788C21.1515 27.0682 21.0409 26.9576 20.875 26.7918Z" fill="white"/>
<path d="M34.8091 44.6518C35.9703 45.8129 37.1868 47.0294 38.4585 48.2459C39.7303 49.5176 41.2232 49.8494 42.8821 49.2965C43.4903 49.0753 44.0985 48.6329 44.5962 48.1906C45.7574 47.14 46.8079 45.9788 47.9138 44.8729C48.0244 44.7623 48.135 44.6518 48.1903 44.5965C52.835 49.1859 57.4244 53.72 62.1244 58.42C61.5715 58.5306 61.1291 58.6412 60.6868 58.7518C60.5209 58.8071 60.2997 58.7518 60.0785 58.7518C47.6374 58.7518 35.2515 58.7518 22.8103 58.7518C22.1468 58.7518 21.4832 58.6965 20.875 58.3647C25.575 53.7753 30.1644 49.2412 34.8091 44.6518Z" fill="white"/>
<path d="M18.8851 56.3188C18.6086 55.8212 18.498 55.2129 18.498 54.6047C18.498 50.5682 18.498 46.5871 18.498 42.5506C18.5533 38.5694 18.5533 34.5882 18.5533 30.6071C18.5533 29.9988 18.6639 29.3906 18.9404 28.8376C23.5851 33.4271 28.1745 38.0165 32.8192 42.5506C28.1192 47.14 23.5298 51.7294 18.8851 56.3188Z" fill="white"/>
</svg>
