<svg width="82" height="82" viewBox="0 0 82 82" fill="none" xmlns="http://www.w3.org/2000/svg">
<circle cx="41" cy="41" r="41" fill="#0086CC"/>
<path d="M67.5 34.3454C67.5 40.5182 67.5 46.6909 67.5 52.9272C67.5 52.9909 67.4364 53.0545 67.4364 53.1182C67.1818 55.0273 65.4 56.6182 63.0455 56.5545C61.6455 56.4909 60.3091 56.5545 58.9091 56.5545C58.5909 56.5545 58.2091 56.5545 57.8273 56.5545C57.8273 56.8091 57.8273 57 57.8273 57.1909C57.8273 59.9909 57.8273 62.7909 57.8273 65.5909C57.8273 67.0545 57.1909 67.7545 55.7273 67.7545C46.0545 67.7545 36.4455 67.7545 26.7727 67.7545C25.3091 67.7545 24.6727 67.1182 24.6727 65.6545C24.6727 62.8545 24.6727 59.9909 24.6727 57.1909C24.6727 57 24.6727 56.8091 24.6727 56.6182C24.4182 56.6182 24.2273 56.6182 24.0364 56.6182C22.4455 56.6182 20.9182 56.6182 19.3273 56.6182C16.7182 56.6182 15.0636 54.9 15 52.2909C15 46.5636 15 40.9 15 35.1727C15 32.6273 16.7182 30.8454 19.3273 30.8454C20.9182 30.8454 22.5091 30.8454 24.1 30.8454C24.2909 30.8454 24.4818 30.8454 24.6727 30.8454C24.6727 30.5909 24.6727 30.4 24.6727 30.2091C24.6727 27.1545 24.6727 24.1 24.6727 21.0454C24.6727 19.6454 25.3727 18.9454 26.7727 18.9454C36.4455 18.9454 46.1182 18.9454 55.7909 18.9454C57.1909 18.9454 57.8273 19.6454 57.8273 21.0454C57.8273 24.1 57.8273 27.1545 57.8273 30.2091C57.8273 30.4 57.8273 30.5909 57.8273 30.8454C58.0818 30.8454 58.2727 30.8454 58.4636 30.8454C60.0545 30.8454 61.6455 30.8454 63.3 30.8454C64.7 30.8454 65.8455 31.3545 66.6727 32.5C67.0545 32.9454 67.2455 33.6454 67.5 34.3454ZM54.3273 64.1273C54.3273 59.3545 54.3273 54.5818 54.3273 49.8727C45.6091 49.8727 36.8909 49.8727 28.2364 49.8727C28.2364 54.6454 28.2364 59.4182 28.2364 64.1273C36.9545 64.1273 45.6091 64.1273 54.3273 64.1273ZM28.2364 22.3818C28.2364 25.1818 28.2364 27.9818 28.2364 30.7182C36.9545 30.7182 45.6727 30.7182 54.3909 30.7182C54.3909 27.9182 54.3909 25.1818 54.3909 22.3818C45.6091 22.3818 36.9545 22.3818 28.2364 22.3818ZM53.8818 40.9636C54.6455 40.9636 55.4091 40.9636 56.1091 40.9636C57.0636 40.9636 57.8273 40.2 57.8273 39.2454C57.8273 38.2909 57.0636 37.5273 56.1091 37.5273C54.5818 37.5273 53.1182 37.5273 51.5909 37.5273C50.6364 37.5273 49.8727 38.2909 49.8727 39.2454C49.8727 40.2 50.6364 40.9636 51.6545 40.9636C52.4182 41.0273 53.1818 40.9636 53.8818 40.9636Z" fill="white"/>
<path d="M41.2825 55.9182C38.8007 55.9182 36.2552 55.9182 33.7734 55.9182C32.5007 55.9182 31.6734 54.7091 32.1189 53.5636C32.3734 52.8636 33.0098 52.4182 33.837 52.4182C35.8098 52.4182 37.7825 52.4182 39.7552 52.4182C42.7461 52.4182 45.8007 52.4182 48.7916 52.4182C50.128 52.4182 50.9552 53.6273 50.5098 54.7727C50.2552 55.4727 49.6189 55.9182 48.7916 55.9182C46.2461 55.9818 43.7643 55.9182 41.2825 55.9182Z" fill="white"/>
<path d="M41.2816 57.9545C43.7634 57.9545 46.3089 57.9545 48.7907 57.9545C50.0634 57.9545 50.8907 59.1636 50.4453 60.3091C50.1907 61.0091 49.5544 61.4545 48.7271 61.4545C47.2634 61.4545 45.7362 61.4545 44.2725 61.4545C40.7725 61.4545 37.3362 61.4545 33.8362 61.4545C32.4998 61.4545 31.6089 60.3091 32.0544 59.1636C32.3089 58.4636 32.9453 58.0182 33.7725 58.0182C36.318 57.9545 38.7998 57.9545 41.2816 57.9545Z" fill="white"/>
</svg>
