<?xml version="1.0" encoding="utf-8"?>
<!-- Generator: Adobe Illustrator 24.0.2, SVG Export Plug-In . SVG Version: 6.00 Build 0)  -->
<svg version="1.1" id="Layer_1" xmlns="http://www.w3.org/2000/svg" xmlns:xlink="http://www.w3.org/1999/xlink" x="0px" y="0px"
	 viewBox="0 0 85 85" style="enable-background:new 0 0 85 85;" xml:space="preserve">
<style type="text/css">
	.st0{fill:#FFFFFF;}
	.st1{fill:#29A71A;}
</style>
<g>
	<ellipse class="st0" cx="42.2" cy="47.3" rx="32.7" ry="35.5"/>
	<path class="st1" d="M1.2,45.5c0-1.7,0-3.5,0-5.2c0-0.2,0.1-0.5,0.1-0.7c0.3-1.9,0.4-3.8,0.9-5.7c5.1-23.1,28-37.4,51-31.7
		c21.8,5.4,35.3,26.8,31,48.8C81,68,67.3,81.3,50.4,84.2c-1.5,0.3-3.1,0.4-4.6,0.6c-1.7,0-3.5,0-5.2,0c-0.2,0-0.4-0.1-0.5-0.1
		c-3.6-0.3-7-0.9-10.4-2.1C14.4,76.9,5.1,66.1,1.9,50.2C1.6,48.7,1.4,47.1,1.2,45.5z M69.2,42.8c-0.2-1.5-0.3-3-0.5-4.5
		C66.2,24,52.6,14.5,38.4,17.2c-16.8,3.2-26,21.2-18.7,36.6c0.2,0.4,0.3,1,0.2,1.5c-0.8,4.1-1.7,8.1-2.5,12.2
		c-0.3,1.3,0.3,1.8,1.6,1.5c4-0.9,8.1-1.9,12.1-2.8c0.4-0.1,0.9,0,1.2,0.1c4.5,2,9.2,2.8,14,2.2C59.2,67,69.1,55.9,69.2,42.8z"/>
	<path class="st1" d="M24.2,61.9c0.3-1.4,0.5-2.7,0.8-3.9c0-0.1,0-0.2,0.1-0.2c0.8-2.5,1-4.9-0.7-7.1c-5.3-12.5,3-26.6,16.4-28.1
		c12.8-1.4,23.8,9.3,22.6,22.1c-1,11.3-11.1,19.5-22.4,18.3c-2.8-0.3-5.5-1.2-8-2.5c-0.5-0.3-1-0.4-1.6-0.2
		C29.1,60.8,26.7,61.3,24.2,61.9z M50.3,55.4c0.4,0,1.1-0.1,1.8-0.3c2.1-0.5,3.4-2,4.5-3.7c1-1.4,0.5-2.7-1.2-3.2
		c-1.3-0.4-2.5-0.6-3.8-1.1c-1.5-0.6-2.5-0.2-3.5,0.9c-1.2,1.4-2,1.5-3.5,0.4c-1.9-1.4-3.8-3-5.6-4.5c-0.8-0.7-1.4-1.5-2-2.4
		c-0.5-0.7-0.5-1.5,0.1-2.3c0.3-0.5,0.8-0.9,1-1.4c0.2-0.5,0.4-1.3,0.2-1.8c-0.6-1.7-1.4-3.4-2.2-5c-0.5-1-1.7-1.4-2.5-0.8
		c-2,1.5-3.6,3.2-3.7,5.9c-0.1,2.3,0.6,4.4,1.8,6.4c3,4.9,7.1,8.6,12.1,11.2C45.8,54.8,47.8,55.3,50.3,55.4z"/>
</g>
</svg>
