<svg width="43" height="38" viewBox="0 0 43 38" fill="none" xmlns="http://www.w3.org/2000/svg">
<path d="M24.2367 4.79114L24.2374 4.79043C27.9778 0.892553 33.9207 0.355751 37.8473 3.73477C42.4595 7.71088 42.7093 14.8765 38.5669 19.1939L38.5666 19.1942L22.3162 36.1409C22.3161 36.141 22.3161 36.1411 22.316 36.1412C21.8567 36.6196 21.1362 36.6196 20.6769 36.1412C20.6768 36.1411 20.6767 36.141 20.6766 36.1409L4.42684 19.1948C0.291751 14.8773 0.541656 7.71097 5.15402 3.73473C9.08113 0.355248 15.0317 0.893444 18.7628 4.78936L18.7645 4.79114L20.419 6.51298L21.5006 7.63865L22.5822 6.51298L24.2367 4.79114Z" fill="white" stroke="#DF0F5C" stroke-width="3"/>
</svg>