<svg width="82" height="82" viewBox="0 0 82 82" fill="none" xmlns="http://www.w3.org/2000/svg">
<circle cx="41" cy="41" r="41" fill="#2EAB07"/>
<path d="M63.8467 37.1765C63.8467 40.8082 63.8467 44.3824 63.8467 48.0141C63.789 48.5329 63.7314 49.0518 63.6161 49.5706C62.7514 53.0871 59.5231 55.22 55.7761 54.7588C55.7761 52.3953 55.7761 49.9741 55.7761 47.5529C55.949 47.5529 56.0643 47.5529 56.1796 47.5529C57.2749 47.5529 57.909 47.0341 57.909 46.1694C57.909 45.3047 57.2749 44.8435 56.1796 44.8435C45.8031 44.8435 35.4843 44.8435 25.1078 44.8435C24.9925 44.8435 24.8196 44.8435 24.7043 44.8435C23.9549 44.9012 23.3784 45.4776 23.3784 46.1694C23.3784 46.9188 23.9549 47.4953 24.7043 47.5529C24.9925 47.5529 25.2231 47.5529 25.569 47.5529C25.569 49.9741 25.569 52.3376 25.569 54.7588C25.1078 54.7588 24.6467 54.7588 24.1855 54.7588C20.7843 54.7012 17.9019 51.9341 17.6714 48.5329C17.6714 48.4753 17.6714 48.4176 17.6714 48.4176C17.6714 44.5553 17.5561 40.6353 17.6714 36.7729C17.7867 33.1988 20.7843 30.4318 24.3584 30.4318C35.2537 30.4318 46.149 30.4318 57.0443 30.4318C60.1572 30.4318 62.809 32.5647 63.5584 35.5624C63.7314 36.0812 63.789 36.6 63.8467 37.1765ZM26.9525 38.9059C27.6443 38.9059 28.3361 38.9059 29.0278 38.9059C29.8925 38.9059 30.469 38.3294 30.469 37.5224C30.469 36.7729 29.8925 36.1965 29.0278 36.1965C27.6443 36.1965 26.2608 36.1965 24.8772 36.1965C24.0125 36.1965 23.4361 36.7729 23.4361 37.5224C23.4361 38.2718 24.0125 38.8482 24.8772 38.8482C25.569 38.9059 26.2608 38.9059 26.9525 38.9059Z" fill="white"/>
<path d="M30.5275 65.02C30.1816 64.8471 29.8357 64.7318 29.5475 64.5588C28.8557 64.0977 28.3946 63.4635 28.3369 62.5988C28.3369 62.4259 28.3369 62.1953 28.3369 62.0224C28.3369 57.3529 28.3369 52.7412 28.3369 48.0718C28.3369 47.8988 28.3369 47.7835 28.3369 47.6106C36.5804 47.6106 44.824 47.6106 53.1251 47.6106C53.1251 47.7835 53.1251 47.9565 53.1251 48.1871C53.1251 52.6835 53.1251 57.18 53.1251 61.6765C53.1251 63.6941 52.7216 64.3282 50.9346 65.0777C44.0746 65.02 37.2722 65.02 30.5275 65.02ZM40.731 50.6659C39.5781 50.6659 38.3675 50.6659 37.2146 50.6659C36.3499 50.6659 35.7157 51.2424 35.7157 51.9918C35.7157 52.7988 36.3499 53.3177 37.2146 53.3753C39.5204 53.3753 41.8263 53.3753 44.1899 53.3753C45.0546 53.3753 45.6887 52.7988 45.6887 52.0494C45.6887 51.2424 45.0546 50.7235 44.1899 50.6659C43.0369 50.6659 41.884 50.6659 40.731 50.6659ZM40.731 59.14C41.884 59.14 42.9793 59.14 44.1322 59.14C45.0546 59.14 45.6887 58.6212 45.6887 57.8141C45.6887 57.0071 45.0546 56.4306 44.1899 56.4306C41.884 56.4306 39.6357 56.4306 37.3299 56.4306C36.4075 56.4306 35.7734 56.9494 35.7734 57.7565C35.7734 58.5635 36.4075 59.14 37.3299 59.14C38.4251 59.14 39.5781 59.14 40.731 59.14Z" fill="white"/>
<path d="M55.719 27.6647C45.6307 27.6647 35.6578 27.6647 25.5696 27.6647C25.5696 26.8 25.5119 25.9353 25.5696 25.1282C25.7425 22.5341 27.0107 20.6894 29.259 19.4788C30.239 18.96 31.219 18.7294 32.2566 18.7294C37.8484 18.7294 43.4402 18.7294 49.0896 18.7294C52.606 18.7294 55.546 21.5541 55.7766 25.0705C55.7766 25.9353 55.719 26.8 55.719 27.6647Z" fill="white"/>
</svg>
